<svg id="svg" version="1.1" xmlns="http://www.w3.org/2000/svg" xmlns:xlink="http://www.w3.org/1999/xlink" width="400" height="400" viewBox="0, 0, 400,400"><g id="svgg"><path id="path0" d="M25.071 87.463 C 24.437 88.096,24.766 312.412,25.401 312.656 C 27.056 313.291,27.816 312.484,30.291 307.462 C 33.801 300.341,33.290 300.600,43.809 300.600 C 54.205 300.600,53.552 300.266,57.229 307.458 C 59.825 312.536,59.875 312.600,61.229 312.600 L 62.600 312.600 62.600 200.000 L 62.600 87.400 43.971 87.296 C 33.724 87.239,25.219 87.314,25.071 87.463 M62.400 200.027 L 62.400 312.453 61.304 312.327 C 60.339 312.215,59.920 311.625,57.807 307.400 C 53.988 299.767,54.433 300.000,43.685 300.000 C 33.097 300.000,33.647 299.718,30.000 307.005 C 27.695 311.611,27.275 312.214,26.300 312.327 L 25.200 312.453 25.200 200.027 L 25.200 87.600 43.800 87.600 L 62.400 87.600 62.400 200.027 M75.200 168.800 L 75.200 250.000 225.000 250.000 L 374.800 250.000 374.800 168.800 L 374.800 87.600 225.000 87.600 L 75.200 87.600 75.200 168.800 M40.719 100.298 C 42.544 100.372,45.424 100.372,47.119 100.297 C 48.814 100.222,47.320 100.161,43.800 100.162 C 40.280 100.162,38.894 100.224,40.719 100.298 M100.000 106.200 L 100.000 112.400 93.800 112.400 L 87.600 112.400 87.600 106.200 L 87.600 100.000 93.800 100.000 L 100.000 100.000 100.000 106.200 M212.400 106.200 L 212.400 112.400 206.200 112.400 L 200.000 112.400 200.000 106.200 L 200.000 100.000 206.200 100.000 L 212.400 100.000 212.400 106.200 M250.000 106.200 L 250.000 112.400 243.800 112.400 L 237.600 112.400 237.600 106.200 L 237.600 100.000 243.800 100.000 L 250.000 100.000 250.000 106.200 M362.400 106.200 L 362.400 112.400 356.200 112.400 L 350.000 112.400 350.000 106.200 L 350.000 100.000 356.200 100.000 L 362.400 100.000 362.400 106.200 M159.200 106.980 C 215.753 116.402,232.073 189.122,184.733 220.748 C 143.407 248.355,87.614 218.512,87.614 168.800 C 87.614 130.792,122.305 100.834,159.200 106.980 M312.788 107.570 C 352.893 116.334,374.104 159.985,355.991 196.483 C 336.914 234.924,286.332 243.190,255.971 212.829 C 227.841 184.699,232.414 138.758,265.533 116.753 C 273.727 111.309,280.452 108.780,292.400 106.652 C 295.537 106.093,308.752 106.688,312.788 107.570 M43.600 112.400 L 37.400 112.632 43.476 112.716 C 47.189 112.767,49.649 112.644,49.800 112.400 C 49.936 112.180,49.992 112.038,49.924 112.084 C 49.856 112.130,47.010 112.273,43.600 112.400 M152.000 119.377 C 152.000 119.741,152.247 120.526,152.548 121.120 C 153.563 123.120,154.886 127.429,156.060 132.555 L 156.600 134.910 159.375 135.627 C 160.901 136.021,163.676 137.100,165.542 138.024 C 168.803 139.640,168.956 139.676,169.499 138.953 C 171.261 136.608,173.475 130.827,174.168 126.763 L 174.413 125.326 171.706 124.014 C 166.443 121.462,161.341 119.931,156.400 119.420 C 154.970 119.272,153.395 119.053,152.900 118.932 C 152.241 118.772,152.000 118.891,152.000 119.377 M302.000 119.377 C 302.000 119.741,302.247 120.526,302.548 121.120 C 303.563 123.120,304.886 127.429,306.060 132.555 L 306.600 134.910 309.375 135.627 C 310.901 136.021,313.676 137.100,315.542 138.024 C 318.803 139.640,318.956 139.676,319.499 138.953 C 321.261 136.608,323.475 130.827,324.168 126.763 L 324.413 125.326 321.706 124.014 C 316.443 121.462,311.341 119.931,306.400 119.420 C 304.970 119.272,303.395 119.053,302.900 118.932 C 302.241 118.772,302.000 118.891,302.000 119.377 M134.200 121.236 C 127.548 123.478,116.000 130.581,116.000 132.430 C 116.000 132.580,116.585 132.937,117.300 133.222 C 121.087 134.734,124.035 136.261,127.093 138.296 L 130.495 140.560 131.748 139.829 C 134.621 138.152,135.507 137.711,137.600 136.914 C 138.810 136.454,140.666 135.853,141.725 135.580 L 143.650 135.082 143.393 133.441 C 142.676 128.857,138.564 120.372,137.081 120.413 C 136.816 120.421,135.520 120.791,134.200 121.236 M284.200 121.236 C 277.548 123.478,266.000 130.581,266.000 132.430 C 266.000 132.580,266.585 132.937,267.300 133.222 C 271.087 134.734,274.035 136.261,277.093 138.296 L 280.495 140.560 281.748 139.829 C 284.621 138.152,285.507 137.711,287.600 136.914 C 288.810 136.454,290.666 135.853,291.725 135.580 L 293.650 135.082 293.393 133.441 C 292.676 128.857,288.564 120.372,287.081 120.413 C 286.816 120.421,285.520 120.791,284.200 121.236 M138.547 122.791 C 139.126 123.667,139.600 124.567,139.600 124.791 C 139.600 125.016,139.780 125.200,140.000 125.200 C 140.220 125.200,140.400 125.472,140.400 125.805 C 140.400 126.138,140.580 126.768,140.800 127.205 C 141.020 127.642,141.380 128.358,141.600 128.795 C 141.820 129.232,142.000 129.941,142.000 130.371 C 142.000 130.801,142.180 131.264,142.400 131.400 C 143.759 132.240,142.804 134.624,140.900 135.146 C 138.002 135.941,134.300 137.556,132.338 138.882 C 130.888 139.862,130.120 139.787,128.438 138.500 C 126.236 136.815,121.377 134.212,117.808 132.804 L 116.616 132.334 118.067 131.067 C 120.618 128.839,121.200 128.400,121.605 128.400 C 121.822 128.400,122.000 128.250,122.000 128.068 C 122.000 127.885,122.495 127.480,123.100 127.168 C 123.705 126.856,124.290 126.496,124.400 126.368 C 124.672 126.050,130.931 123.060,133.400 122.068 C 136.501 120.822,137.320 120.937,138.547 122.791 M288.547 122.791 C 289.126 123.667,289.600 124.567,289.600 124.791 C 289.600 125.016,289.780 125.200,290.000 125.200 C 290.220 125.200,290.400 125.472,290.400 125.805 C 290.400 126.138,290.580 126.768,290.800 127.205 C 291.020 127.642,291.380 128.358,291.600 128.795 C 291.820 129.232,292.000 129.941,292.000 130.371 C 292.000 130.801,292.180 131.264,292.400 131.400 C 293.759 132.240,292.804 134.624,290.900 135.146 C 288.002 135.941,284.300 137.556,282.338 138.882 C 280.888 139.862,280.120 139.787,278.438 138.500 C 276.236 136.815,271.377 134.212,267.808 132.804 L 266.616 132.334 268.067 131.067 C 270.618 128.839,271.200 128.400,271.605 128.400 C 271.822 128.400,272.000 128.250,272.000 128.068 C 272.000 127.885,272.495 127.480,273.100 127.168 C 273.705 126.856,274.290 126.496,274.400 126.368 C 274.672 126.050,280.931 123.060,283.400 122.068 C 286.501 120.822,287.320 120.937,288.547 122.791 M40.719 125.098 C 42.544 125.172,45.424 125.172,47.119 125.097 C 48.814 125.022,47.320 124.961,43.800 124.962 C 40.280 124.962,38.894 125.024,40.719 125.098 M184.831 135.842 C 184.022 138.582,180.859 145.204,179.979 146.000 C 179.857 146.110,179.366 146.845,178.887 147.634 L 178.016 149.069 179.125 150.834 C 180.823 153.540,182.000 156.262,183.216 160.300 C 183.498 161.235,183.975 162.000,184.277 162.000 C 186.315 162.000,193.333 158.893,196.471 156.601 L 198.341 155.235 197.377 152.517 C 195.198 146.375,191.326 139.766,187.418 135.515 C 185.649 133.591,185.489 133.612,184.831 135.842 M334.831 135.842 C 334.022 138.582,330.859 145.204,329.979 146.000 C 329.857 146.110,329.366 146.845,328.887 147.634 L 328.016 149.069 329.125 150.834 C 330.823 153.540,332.000 156.262,333.216 160.300 C 333.498 161.235,333.975 162.000,334.277 162.000 C 336.315 162.000,343.333 158.893,346.471 156.601 L 348.341 155.235 347.377 152.517 C 345.198 146.375,341.326 139.766,337.418 135.515 C 335.649 133.591,335.489 133.612,334.831 135.842 M189.600 139.012 C 189.600 139.134,189.931 139.589,190.336 140.023 C 190.741 140.458,191.326 141.305,191.635 141.907 C 191.945 142.508,192.296 143.090,192.414 143.200 C 192.797 143.555,195.904 150.128,196.826 152.533 L 197.720 154.867 196.740 155.733 C 195.013 157.262,190.610 159.590,188.000 160.355 C 187.010 160.646,185.772 161.051,185.248 161.257 C 184.725 161.462,184.263 161.578,184.223 161.515 C 184.182 161.452,183.915 160.590,183.629 159.600 C 182.846 156.890,181.462 153.741,179.600 150.435 C 178.845 149.095,179.213 147.364,180.458 146.400 C 181.010 145.972,184.456 138.888,185.092 136.873 L 185.763 134.747 187.681 136.768 C 188.737 137.881,189.600 138.890,189.600 139.012 M339.600 139.012 C 339.600 139.134,339.931 139.589,340.336 140.023 C 340.741 140.458,341.326 141.305,341.635 141.907 C 341.945 142.508,342.296 143.090,342.414 143.200 C 342.797 143.555,345.904 150.128,346.826 152.533 L 347.720 154.867 346.740 155.733 C 345.013 157.262,340.610 159.590,338.000 160.355 C 337.010 160.646,335.772 161.051,335.248 161.257 C 334.725 161.462,334.263 161.578,334.223 161.515 C 334.182 161.452,333.915 160.590,333.629 159.600 C 332.846 156.890,331.462 153.741,329.600 150.435 C 328.845 149.095,329.213 147.364,330.458 146.400 C 331.010 145.972,334.456 138.888,335.092 136.873 L 335.763 134.747 337.681 136.768 C 338.737 137.881,339.600 138.890,339.600 139.012 M40.719 137.498 C 42.544 137.572,45.424 137.572,47.119 137.497 C 48.814 137.422,47.320 137.361,43.800 137.362 C 40.280 137.362,38.894 137.424,40.719 137.498 M106.463 144.750 C 103.864 148.536,101.636 155.521,100.668 162.911 C 100.074 167.448,100.053 167.390,101.950 166.436 C 104.533 165.135,109.497 163.612,113.900 162.769 C 116.063 162.355,116.400 162.172,116.400 161.411 C 116.400 159.962,117.946 155.703,119.599 152.602 L 121.150 149.692 120.275 148.913 C 116.516 145.563,107.723 142.913,106.463 144.750 M256.463 144.750 C 253.864 148.536,251.636 155.521,250.668 162.911 C 250.074 167.448,250.053 167.390,251.950 166.436 C 254.533 165.135,259.497 163.612,263.900 162.769 C 266.063 162.355,266.400 162.172,266.400 161.411 C 266.400 159.962,267.946 155.703,269.599 152.602 L 271.150 149.692 270.275 148.913 C 266.516 145.563,257.723 142.913,256.463 144.750 M143.573 147.734 C 142.128 148.210,140.469 148.915,139.887 149.300 C 139.305 149.685,138.642 150.000,138.415 150.000 C 138.188 150.000,136.649 151.286,134.995 152.857 C 116.523 170.403,137.415 199.567,160.288 188.163 C 168.263 184.186,174.288 171.642,171.675 164.452 C 171.465 163.873,171.054 162.590,170.762 161.600 C 169.072 155.870,162.917 149.717,157.200 148.044 C 156.210 147.754,154.987 147.355,154.481 147.158 C 152.719 146.471,146.388 146.805,143.573 147.734 M293.573 147.734 C 292.128 148.210,290.469 148.915,289.887 149.300 C 289.305 149.685,288.642 150.000,288.415 150.000 C 288.188 150.000,286.649 151.286,284.995 152.857 C 266.523 170.403,287.415 199.567,310.288 188.163 C 318.263 184.186,324.288 171.642,321.675 164.452 C 321.465 163.873,321.054 162.590,320.762 161.600 C 319.072 155.870,312.917 149.717,307.200 148.044 C 306.210 147.754,304.987 147.355,304.481 147.158 C 302.719 146.471,296.388 146.805,293.573 147.734 M154.972 147.795 C 166.474 150.541,173.862 162.528,170.965 173.742 C 165.245 195.884,134.179 195.668,129.026 173.450 C 125.476 158.142,139.642 144.134,154.972 147.795 M304.972 147.795 C 316.474 150.541,323.862 162.528,320.965 173.742 C 315.245 195.884,284.179 195.668,279.026 173.450 C 275.476 158.142,289.642 144.134,304.972 147.795 M40.719 150.298 C 42.544 150.372,45.424 150.372,47.119 150.297 C 48.814 150.222,47.320 150.161,43.800 150.162 C 40.280 150.162,38.894 150.224,40.719 150.298 M43.600 162.400 L 37.400 162.632 43.476 162.716 C 47.189 162.767,49.649 162.644,49.800 162.400 C 49.936 162.180,49.992 162.038,49.924 162.084 C 49.856 162.130,47.010 162.273,43.600 162.400 M196.600 170.904 C 193.038 172.685,187.869 174.400,186.062 174.400 C 184.640 174.400,183.600 175.138,183.600 176.148 C 183.600 177.618,182.055 181.985,180.569 184.714 C 178.854 187.863,178.843 187.757,181.002 189.022 C 184.014 190.787,187.604 192.040,191.684 192.748 L 193.567 193.075 194.551 191.038 C 196.031 187.975,197.391 184.438,197.951 182.200 C 198.226 181.100,198.606 179.570,198.796 178.800 C 199.176 177.260,200.007 171.410,200.003 170.300 C 199.999 169.376,199.466 169.471,196.600 170.904 M346.600 170.904 C 343.038 172.685,337.869 174.400,336.062 174.400 C 334.640 174.400,333.600 175.138,333.600 176.148 C 333.600 177.618,332.055 181.985,330.569 184.714 C 328.854 187.863,328.843 187.757,331.002 189.022 C 334.014 190.787,337.604 192.040,341.684 192.748 L 343.567 193.075 344.551 191.038 C 346.031 187.975,347.391 184.438,347.951 182.200 C 348.226 181.100,348.606 179.570,348.796 178.800 C 349.176 177.260,350.007 171.410,350.003 170.300 C 349.999 169.376,349.466 169.471,346.600 170.904 M112.244 175.991 C 109.203 176.810,104.437 179.055,102.648 180.510 L 101.496 181.448 102.433 184.424 C 103.680 188.382,106.648 194.143,109.428 198.005 C 113.042 203.024,114.001 203.646,114.578 201.346 C 115.067 199.398,117.527 194.634,119.575 191.668 C 122.003 188.152,121.973 188.860,119.866 184.767 C 118.913 182.915,117.710 180.005,117.193 178.300 C 116.133 174.804,116.322 174.892,112.244 175.991 M262.244 175.991 C 259.203 176.810,254.437 179.055,252.648 180.510 L 251.496 181.448 252.433 184.424 C 253.680 188.382,256.648 194.143,259.428 198.005 C 263.042 203.024,264.001 203.646,264.578 201.346 C 265.067 199.398,267.527 194.634,269.575 191.668 C 272.003 188.152,271.973 188.860,269.866 184.767 C 268.913 182.915,267.710 180.005,267.193 178.300 C 266.133 174.804,266.322 174.892,262.244 175.991 M116.393 177.700 C 116.937 179.876,119.121 185.083,120.070 186.462 C 121.127 187.999,121.016 188.463,118.804 191.756 C 116.770 194.783,114.683 198.917,114.188 200.900 C 113.821 202.369,113.514 202.294,111.937 200.353 C 111.202 199.447,110.375 198.470,110.100 198.182 C 109.825 197.893,109.600 197.464,109.600 197.229 C 109.600 196.993,109.432 196.800,109.227 196.800 C 109.022 196.800,108.740 196.441,108.601 196.002 C 108.462 195.564,108.132 194.979,107.868 194.702 C 106.588 193.362,102.400 183.662,102.400 182.038 C 102.400 181.343,105.112 179.200,105.991 179.200 C 106.216 179.200,106.400 179.020,106.400 178.800 C 106.400 178.580,106.672 178.400,107.005 178.400 C 107.593 178.400,108.018 178.233,109.895 177.262 C 110.387 177.008,111.141 176.800,111.571 176.800 C 112.001 176.800,112.464 176.620,112.600 176.400 C 113.399 175.108,115.966 175.988,116.393 177.700 M266.393 177.700 C 266.937 179.876,269.121 185.083,270.070 186.462 C 271.127 187.999,271.016 188.463,268.804 191.756 C 266.770 194.783,264.683 198.917,264.188 200.900 C 263.821 202.369,263.514 202.294,261.937 200.353 C 261.202 199.447,260.375 198.470,260.100 198.182 C 259.825 197.893,259.600 197.464,259.600 197.229 C 259.600 196.993,259.432 196.800,259.227 196.800 C 259.022 196.800,258.740 196.441,258.601 196.002 C 258.462 195.564,258.132 194.979,257.868 194.702 C 256.588 193.362,252.400 183.662,252.400 182.038 C 252.400 181.343,255.112 179.200,255.991 179.200 C 256.216 179.200,256.400 179.020,256.400 178.800 C 256.400 178.580,256.672 178.400,257.005 178.400 C 257.593 178.400,258.018 178.233,259.895 177.262 C 260.387 177.008,261.141 176.800,261.571 176.800 C 262.001 176.800,262.464 176.620,262.600 176.400 C 263.399 175.108,265.966 175.988,266.393 177.700 M40.719 181.498 C 42.544 181.572,45.424 181.572,47.119 181.497 C 48.814 181.422,47.320 181.361,43.800 181.362 C 40.280 181.362,38.894 181.424,40.719 181.498 M40.719 193.898 C 42.544 193.972,45.424 193.972,47.119 193.897 C 48.814 193.822,47.320 193.761,43.800 193.762 C 40.280 193.762,38.894 193.824,40.719 193.898 M168.000 197.842 C 166.529 198.895,162.655 200.800,161.983 200.800 C 161.766 200.800,161.277 200.963,160.895 201.163 C 160.513 201.362,159.423 201.733,158.473 201.987 C 156.802 202.433,156.756 202.489,157.020 203.724 C 158.395 210.154,162.449 217.030,164.624 216.622 C 169.254 215.753,178.432 210.603,183.300 206.142 C 185.253 204.353,185.254 204.354,182.100 203.264 C 178.706 202.090,175.363 200.412,172.370 198.380 C 169.652 196.534,169.801 196.552,168.000 197.842 M318.000 197.842 C 316.529 198.895,312.655 200.800,311.983 200.800 C 311.766 200.800,311.277 200.963,310.895 201.163 C 310.513 201.362,309.423 201.733,308.473 201.987 C 306.802 202.433,306.756 202.489,307.020 203.724 C 308.395 210.154,312.449 217.030,314.624 216.622 C 319.254 215.753,328.432 210.603,333.300 206.142 C 335.253 204.353,335.254 204.354,332.100 203.264 C 328.706 202.090,325.363 200.412,322.370 198.380 C 319.652 196.534,319.801 196.552,318.000 197.842 M129.866 198.882 C 127.714 201.711,125.200 208.057,125.200 210.660 C 125.200 213.253,134.488 216.896,144.400 218.191 C 149.476 218.854,149.541 218.806,147.955 215.572 C 146.468 212.538,146.247 211.977,145.604 209.600 C 145.336 208.610,144.955 207.387,144.758 206.881 C 144.561 206.376,144.400 205.509,144.400 204.955 C 144.400 203.397,143.686 202.400,142.571 202.400 C 141.320 202.400,134.980 199.974,132.627 198.595 L 130.868 197.564 129.866 198.882 M171.952 198.812 C 174.753 200.840,179.718 203.173,183.600 204.285 C 184.347 204.499,179.369 209.200,178.395 209.200 C 178.178 209.200,178.000 209.368,178.000 209.573 C 178.000 209.778,177.641 210.060,177.202 210.199 C 176.764 210.338,176.179 210.671,175.902 210.939 C 174.937 211.874,164.915 216.400,163.810 216.400 C 163.135 216.400,158.800 208.771,158.800 207.583 C 158.800 207.178,158.620 206.736,158.400 206.600 C 158.180 206.464,158.000 205.834,158.000 205.200 C 158.000 204.566,157.820 203.936,157.600 203.800 C 156.794 203.302,157.240 202.821,158.900 202.397 C 161.610 201.705,164.662 200.403,168.600 198.258 C 170.140 197.420,169.999 197.396,171.952 198.812 M279.866 198.882 C 277.714 201.711,275.200 208.057,275.200 210.660 C 275.200 213.253,284.488 216.896,294.400 218.191 C 299.476 218.854,299.541 218.806,297.955 215.572 C 296.468 212.538,296.247 211.977,295.604 209.600 C 295.336 208.610,294.955 207.387,294.758 206.881 C 294.561 206.376,294.400 205.509,294.400 204.955 C 294.400 203.397,293.686 202.400,292.571 202.400 C 291.320 202.400,284.980 199.974,282.627 198.595 L 280.868 197.564 279.866 198.882 M321.952 198.812 C 324.753 200.840,329.718 203.173,333.600 204.285 C 334.347 204.499,329.369 209.200,328.395 209.200 C 328.178 209.200,328.000 209.368,328.000 209.573 C 328.000 209.778,327.641 210.060,327.202 210.199 C 326.764 210.338,326.179 210.671,325.902 210.939 C 324.937 211.874,314.915 216.400,313.810 216.400 C 313.135 216.400,308.800 208.771,308.800 207.583 C 308.800 207.178,308.620 206.736,308.400 206.600 C 308.180 206.464,308.000 205.834,308.000 205.200 C 308.000 204.566,307.820 203.936,307.600 203.800 C 306.794 203.302,307.240 202.821,308.900 202.397 C 311.610 201.705,314.662 200.403,318.600 198.258 C 320.140 197.420,319.999 197.396,321.952 198.812 M40.719 206.298 C 42.544 206.372,45.424 206.372,47.119 206.297 C 48.814 206.222,47.320 206.161,43.800 206.162 C 40.280 206.162,38.894 206.224,40.719 206.298 M37.394 225.300 L 37.400 243.800 43.600 243.815 L 49.800 243.830 43.704 243.705 L 37.608 243.580 37.498 225.190 L 37.388 206.800 37.394 225.300 M99.910 231.300 L 100.020 237.600 93.810 237.600 L 87.600 237.600 87.600 231.467 C 87.600 228.093,87.725 225.209,87.877 225.056 C 88.029 224.904,90.774 224.829,93.977 224.890 L 99.800 225.000 99.910 231.300 M212.400 231.200 L 212.400 237.600 206.200 237.600 L 200.000 237.600 200.000 231.467 C 200.000 228.093,200.120 225.213,200.267 225.067 C 200.413 224.920,203.203 224.800,206.467 224.800 L 212.400 224.800 212.400 231.200 M249.910 231.300 L 250.020 237.600 243.810 237.600 L 237.600 237.600 237.600 231.467 C 237.600 228.093,237.725 225.209,237.877 225.056 C 238.029 224.904,240.774 224.829,243.977 224.890 L 249.800 225.000 249.910 231.300 M362.400 231.200 L 362.400 237.600 356.200 237.600 L 350.000 237.600 350.000 231.467 C 350.000 228.093,350.120 225.213,350.267 225.067 C 350.413 224.920,353.203 224.800,356.467 224.800 L 362.400 224.800 362.400 231.200 M40.719 256.298 C 42.544 256.372,45.424 256.372,47.119 256.297 C 48.814 256.222,47.320 256.161,43.800 256.162 C 40.280 256.162,38.894 256.224,40.719 256.298 M37.383 262.600 L 37.400 268.600 43.700 268.616 L 50.001 268.631 43.811 268.506 L 37.621 268.380 37.493 262.490 L 37.366 256.600 37.383 262.600 M224.978 275.000 C 224.978 281.820,225.032 284.666,225.099 281.325 C 225.166 277.984,225.166 272.404,225.099 268.925 C 225.033 265.446,224.978 268.180,224.978 275.000 M124.976 275.318 C 124.867 275.604,124.833 278.439,124.900 281.618 L 125.024 287.400 125.112 281.310 L 125.200 275.221 131.300 275.099 L 137.400 274.978 131.287 274.889 C 126.586 274.820,125.129 274.920,124.976 275.318 M153.300 275.097 C 155.005 275.172,157.795 275.172,159.500 275.097 C 161.205 275.022,159.810 274.961,156.400 274.961 C 152.990 274.961,151.595 275.022,153.300 275.097 M174.976 275.318 C 174.867 275.604,174.833 278.439,174.900 281.618 L 175.024 287.400 175.112 281.310 L 175.200 275.221 181.300 275.099 L 187.400 274.978 181.287 274.889 C 176.586 274.820,175.129 274.920,174.976 275.318 M203.300 275.097 C 205.005 275.172,207.795 275.172,209.500 275.097 C 211.205 275.022,209.810 274.961,206.400 274.961 C 202.990 274.961,201.595 275.022,203.300 275.097 " stroke="none" fill="#4b5c77" fill-rule="evenodd"></path><path id="path1" d="M133.400 122.068 C 130.931 123.060,124.672 126.050,124.400 126.368 C 124.290 126.496,123.705 126.856,123.100 127.168 C 122.495 127.480,122.000 127.885,122.000 128.068 C 122.000 128.250,121.822 128.400,121.605 128.400 C 121.200 128.400,120.618 128.839,118.067 131.067 L 116.616 132.334 117.808 132.804 C 121.377 134.212,126.236 136.815,128.438 138.500 C 130.120 139.787,130.888 139.862,132.338 138.882 C 134.300 137.556,138.002 135.941,140.900 135.146 C 142.804 134.624,143.759 132.240,142.400 131.400 C 142.180 131.264,142.000 130.801,142.000 130.371 C 142.000 129.941,141.820 129.232,141.600 128.795 C 141.380 128.358,141.020 127.642,140.800 127.205 C 140.580 126.768,140.400 126.138,140.400 125.805 C 140.400 125.472,140.220 125.200,140.000 125.200 C 139.780 125.200,139.600 125.016,139.600 124.791 C 139.600 122.002,136.717 120.736,133.400 122.068 M283.400 122.068 C 280.931 123.060,274.672 126.050,274.400 126.368 C 274.290 126.496,273.705 126.856,273.100 127.168 C 272.495 127.480,272.000 127.885,272.000 128.068 C 272.000 128.250,271.822 128.400,271.605 128.400 C 271.200 128.400,270.618 128.839,268.067 131.067 L 266.616 132.334 267.808 132.804 C 271.377 134.212,276.236 136.815,278.438 138.500 C 280.120 139.787,280.888 139.862,282.338 138.882 C 284.300 137.556,288.002 135.941,290.900 135.146 C 292.804 134.624,293.759 132.240,292.400 131.400 C 292.180 131.264,292.000 130.801,292.000 130.371 C 292.000 129.941,291.820 129.232,291.600 128.795 C 291.380 128.358,291.020 127.642,290.800 127.205 C 290.580 126.768,290.400 126.138,290.400 125.805 C 290.400 125.472,290.220 125.200,290.000 125.200 C 289.780 125.200,289.600 125.016,289.600 124.791 C 289.600 122.002,286.717 120.736,283.400 122.068 M185.092 136.873 C 184.456 138.888,181.010 145.972,180.458 146.400 C 179.213 147.364,178.845 149.095,179.600 150.435 C 181.462 153.741,182.846 156.890,183.629 159.600 C 183.915 160.590,184.182 161.452,184.223 161.515 C 184.263 161.578,184.725 161.462,185.248 161.257 C 185.772 161.051,187.010 160.646,188.000 160.355 C 190.610 159.590,195.013 157.262,196.740 155.733 L 197.720 154.867 196.826 152.533 C 195.904 150.128,192.797 143.555,192.414 143.200 C 192.296 143.090,191.945 142.508,191.635 141.907 C 191.326 141.305,190.741 140.458,190.336 140.023 C 189.931 139.589,189.600 139.134,189.600 139.012 C 189.600 138.890,188.737 137.881,187.681 136.768 L 185.763 134.747 185.092 136.873 M335.092 136.873 C 334.456 138.888,331.010 145.972,330.458 146.400 C 329.213 147.364,328.845 149.095,329.600 150.435 C 331.462 153.741,332.846 156.890,333.629 159.600 C 333.915 160.590,334.182 161.452,334.223 161.515 C 334.263 161.578,334.725 161.462,335.248 161.257 C 335.772 161.051,337.010 160.646,338.000 160.355 C 340.610 159.590,345.013 157.262,346.740 155.733 L 347.720 154.867 346.826 152.533 C 345.904 150.128,342.797 143.555,342.414 143.200 C 342.296 143.090,341.945 142.508,341.635 141.907 C 341.326 141.305,340.741 140.458,340.336 140.023 C 339.931 139.589,339.600 139.134,339.600 139.012 C 339.600 138.890,338.737 137.881,337.681 136.768 L 335.763 134.747 335.092 136.873 M144.293 148.029 C 125.133 153.494,122.822 179.624,140.741 188.203 C 157.222 196.095,175.638 180.757,170.771 163.193 C 167.544 151.548,155.713 144.772,144.293 148.029 M294.293 148.029 C 275.133 153.494,272.822 179.624,290.741 188.203 C 307.222 196.095,325.638 180.757,320.771 163.193 C 317.544 151.548,305.713 144.772,294.293 148.029 M112.600 176.400 C 112.464 176.620,112.001 176.800,111.571 176.800 C 111.141 176.800,110.387 177.008,109.895 177.262 C 108.018 178.233,107.593 178.400,107.005 178.400 C 106.672 178.400,106.400 178.580,106.400 178.800 C 106.400 179.020,106.216 179.200,105.991 179.200 C 105.112 179.200,102.400 181.343,102.400 182.038 C 102.400 183.662,106.588 193.362,107.868 194.702 C 108.132 194.979,108.462 195.564,108.601 196.002 C 108.740 196.441,109.022 196.800,109.227 196.800 C 109.432 196.800,109.600 196.993,109.600 197.229 C 109.600 197.464,109.825 197.893,110.100 198.182 C 110.375 198.470,111.202 199.447,111.937 200.353 C 113.514 202.294,113.821 202.369,114.188 200.900 C 114.683 198.917,116.770 194.783,118.804 191.756 C 121.016 188.463,121.127 187.999,120.070 186.462 C 119.121 185.083,116.937 179.876,116.393 177.700 C 115.966 175.988,113.399 175.108,112.600 176.400 M262.600 176.400 C 262.464 176.620,262.001 176.800,261.571 176.800 C 261.141 176.800,260.387 177.008,259.895 177.262 C 258.018 178.233,257.593 178.400,257.005 178.400 C 256.672 178.400,256.400 178.580,256.400 178.800 C 256.400 179.020,256.216 179.200,255.991 179.200 C 255.112 179.200,252.400 181.343,252.400 182.038 C 252.400 183.662,256.588 193.362,257.868 194.702 C 258.132 194.979,258.462 195.564,258.601 196.002 C 258.740 196.441,259.022 196.800,259.227 196.800 C 259.432 196.800,259.600 196.993,259.600 197.229 C 259.600 197.464,259.825 197.893,260.100 198.182 C 260.375 198.470,261.202 199.447,261.937 200.353 C 263.514 202.294,263.821 202.369,264.188 200.900 C 264.683 198.917,266.770 194.783,268.804 191.756 C 271.016 188.463,271.127 187.999,270.070 186.462 C 269.121 185.083,266.937 179.876,266.393 177.700 C 265.966 175.988,263.399 175.108,262.600 176.400 M168.600 198.258 C 164.662 200.403,161.610 201.705,158.900 202.397 C 157.240 202.821,156.794 203.302,157.600 203.800 C 157.820 203.936,158.000 204.566,158.000 205.200 C 158.000 205.834,158.180 206.464,158.400 206.600 C 158.620 206.736,158.800 207.178,158.800 207.583 C 158.800 208.771,163.135 216.400,163.810 216.400 C 164.915 216.400,174.937 211.874,175.902 210.939 C 176.179 210.671,176.764 210.338,177.202 210.199 C 177.641 210.060,178.000 209.778,178.000 209.573 C 178.000 209.368,178.178 209.200,178.395 209.200 C 179.369 209.200,184.347 204.499,183.600 204.285 C 179.718 203.173,174.753 200.840,171.952 198.812 C 169.999 197.396,170.140 197.420,168.600 198.258 M318.600 198.258 C 314.662 200.403,311.610 201.705,308.900 202.397 C 307.240 202.821,306.794 203.302,307.600 203.800 C 307.820 203.936,308.000 204.566,308.000 205.200 C 308.000 205.834,308.180 206.464,308.400 206.600 C 308.620 206.736,308.800 207.178,308.800 207.583 C 308.800 208.771,313.135 216.400,313.810 216.400 C 314.915 216.400,324.937 211.874,325.902 210.939 C 326.179 210.671,326.764 210.338,327.202 210.199 C 327.641 210.060,328.000 209.778,328.000 209.573 C 328.000 209.368,328.178 209.200,328.395 209.200 C 329.369 209.200,334.347 204.499,333.600 204.285 C 329.718 203.173,324.753 200.840,321.952 198.812 C 319.999 197.396,320.140 197.420,318.600 198.258 " stroke="none" fill="#3084cd" fill-rule="evenodd"></path><path id="path2" d="M25.200 200.027 L 25.200 312.453 26.300 312.327 C 27.275 312.214,27.695 311.611,30.000 307.005 C 33.647 299.718,33.097 300.000,43.685 300.000 C 54.433 300.000,53.988 299.767,57.807 307.400 C 59.920 311.625,60.339 312.215,61.304 312.327 L 62.400 312.453 62.400 200.027 L 62.400 87.600 43.800 87.600 L 25.200 87.600 25.200 200.027 M49.910 106.300 L 49.800 112.600 43.700 112.710 L 37.600 112.821 37.600 106.410 L 37.600 100.000 43.810 100.000 L 50.020 100.000 49.910 106.300 M50.000 131.200 L 50.000 137.600 43.800 137.600 L 37.600 137.600 37.600 131.200 L 37.600 124.800 43.800 124.800 L 50.000 124.800 50.000 131.200 M49.910 156.300 L 49.800 162.600 43.700 162.710 L 37.600 162.821 37.600 156.410 L 37.600 150.000 43.810 150.000 L 50.020 150.000 49.910 156.300 M50.000 187.600 L 50.000 194.000 43.800 194.000 L 37.600 194.000 37.600 187.600 L 37.600 181.200 43.800 181.200 L 50.000 181.200 50.000 187.600 M50.000 225.010 L 50.000 244.020 43.700 243.910 L 37.400 243.800 37.289 225.800 C 37.150 203.310,36.265 206.000,43.808 206.000 L 50.000 206.000 50.000 225.010 M50.000 262.410 L 50.000 268.820 43.700 268.710 L 37.400 268.600 37.285 263.200 C 37.116 255.275,36.459 256.000,43.808 256.000 L 50.000 256.000 50.000 262.410 " stroke="none" fill="#e5d8be" fill-rule="evenodd"></path><path id="path3" d="M15.200 75.200 C 15.200 75.420,14.999 75.600,14.753 75.600 C 14.507 75.600,13.790 76.185,13.159 76.900 L 12.013 78.200 12.006 200.083 L 12.000 321.966 13.538 323.583 L 15.076 325.200 25.000 325.200 L 34.924 325.200 36.462 323.583 C 37.308 322.694,38.000 321.704,38.000 321.383 C 38.000 321.062,38.180 320.800,38.400 320.800 C 38.620 320.800,38.800 320.440,38.800 320.000 C 38.800 319.560,38.980 319.200,39.200 319.200 C 39.420 319.200,39.600 318.966,39.600 318.680 C 39.600 317.981,40.533 316.007,40.865 316.003 C 41.011 316.001,41.251 315.280,41.400 314.400 L 41.670 312.800 43.635 312.800 C 45.333 312.800,45.600 312.909,45.600 313.600 C 45.600 314.040,45.780 314.400,46.000 314.400 C 46.220 314.400,46.400 314.760,46.400 315.200 C 46.400 315.640,46.580 316.000,46.800 316.000 C 47.020 316.000,47.200 316.360,47.200 316.800 C 47.200 317.240,47.380 317.600,47.600 317.600 C 47.820 317.600,48.000 317.960,48.000 318.400 C 48.000 318.840,48.180 319.200,48.400 319.200 C 48.620 319.200,48.800 319.560,48.800 320.000 C 48.800 320.440,48.980 320.800,49.200 320.800 C 49.420 320.800,49.600 321.160,49.600 321.600 C 49.600 322.040,49.780 322.400,50.000 322.400 C 50.220 322.400,50.400 322.593,50.400 322.829 C 50.400 323.367,51.158 324.135,52.282 324.737 C 52.869 325.051,56.243 325.200,62.760 325.200 L 72.373 325.200 73.787 323.787 L 75.200 322.373 75.200 292.587 L 75.200 262.800 87.400 262.800 L 99.600 262.800 99.600 280.000 C 99.600 289.460,99.737 297.200,99.905 297.200 C 100.073 297.200,100.388 297.605,100.605 298.100 C 100.822 298.595,101.405 299.178,101.900 299.395 C 102.395 299.612,102.800 299.927,102.800 300.095 C 102.800 300.263,132.500 300.400,168.800 300.400 C 212.533 300.400,234.800 300.265,234.800 300.000 C 234.800 299.780,235.030 299.600,235.312 299.600 C 235.593 299.600,236.088 299.218,236.412 298.751 C 236.735 298.284,237.225 297.667,237.500 297.380 C 237.884 296.978,238.000 292.906,238.000 279.829 L 238.000 262.800 311.400 262.800 C 360.067 262.800,384.800 262.665,384.800 262.400 C 384.800 262.180,385.030 262.000,385.312 262.000 C 385.593 262.000,386.088 261.618,386.412 261.151 C 386.735 260.684,387.225 260.067,387.500 259.780 C 387.897 259.365,388.000 240.614,388.000 168.766 L 388.000 78.276 386.980 76.938 C 386.418 76.202,385.698 75.600,385.380 75.600 C 385.061 75.600,384.800 75.420,384.800 75.200 C 384.800 74.934,322.933 74.800,200.000 74.800 C 77.067 74.800,15.200 74.934,15.200 75.200 M62.600 200.000 L 62.600 312.600 61.229 312.600 C 59.875 312.600,59.825 312.536,57.229 307.458 C 53.552 300.266,54.205 300.600,43.809 300.600 C 33.290 300.600,33.801 300.341,30.291 307.462 C 27.816 312.484,27.056 313.291,25.401 312.656 C 24.766 312.412,24.437 88.096,25.071 87.463 C 25.219 87.314,33.724 87.239,43.971 87.296 L 62.600 87.400 62.600 200.000 M374.800 168.800 L 374.800 250.000 225.000 250.000 L 75.200 250.000 75.200 168.800 L 75.200 87.600 225.000 87.600 L 374.800 87.600 374.800 168.800 M87.600 106.200 L 87.600 112.400 93.800 112.400 L 100.000 112.400 100.000 106.200 L 100.000 100.000 93.800 100.000 L 87.600 100.000 87.600 106.200 M200.000 106.200 L 200.000 112.400 206.200 112.400 L 212.400 112.400 212.400 106.200 L 212.400 100.000 206.200 100.000 L 200.000 100.000 200.000 106.200 M237.600 106.200 L 237.600 112.400 243.800 112.400 L 250.000 112.400 250.000 106.200 L 250.000 100.000 243.800 100.000 L 237.600 100.000 237.600 106.200 M350.000 106.200 L 350.000 112.400 356.200 112.400 L 362.400 112.400 362.400 106.200 L 362.400 100.000 356.200 100.000 L 350.000 100.000 350.000 106.200 M37.600 106.410 L 37.600 112.421 43.700 112.310 L 49.800 112.200 49.911 106.300 L 50.021 100.400 43.811 100.400 L 37.600 100.400 37.600 106.410 M140.352 107.012 C 89.349 115.618,69.631 178.022,106.664 213.630 C 145.633 251.099,210.679 224.878,212.306 171.044 C 213.498 131.613,178.601 100.558,140.352 107.012 M292.400 106.652 C 280.452 108.780,273.727 111.309,265.533 116.753 C 232.414 138.758,227.841 184.699,255.971 212.829 C 286.332 243.190,336.914 234.924,355.991 196.483 C 372.672 162.870,355.972 122.154,320.388 109.681 C 313.005 107.093,298.646 105.539,292.400 106.652 M156.400 119.420 C 161.341 119.931,166.443 121.462,171.706 124.014 L 174.413 125.326 174.168 126.763 C 173.475 130.827,171.261 136.608,169.499 138.953 C 168.956 139.676,168.803 139.640,165.542 138.024 C 163.676 137.100,160.901 136.021,159.375 135.627 L 156.600 134.910 156.060 132.555 C 154.886 127.429,153.563 123.120,152.548 121.120 C 151.705 119.458,151.831 118.672,152.900 118.932 C 153.395 119.053,154.970 119.272,156.400 119.420 M306.400 119.420 C 311.341 119.931,316.443 121.462,321.706 124.014 L 324.413 125.326 324.168 126.763 C 323.475 130.827,321.261 136.608,319.499 138.953 C 318.956 139.676,318.803 139.640,315.542 138.024 C 313.676 137.100,310.901 136.021,309.375 135.627 L 306.600 134.910 306.060 132.555 C 304.886 127.429,303.563 123.120,302.548 121.120 C 301.705 119.458,301.831 118.672,302.900 118.932 C 303.395 119.053,304.970 119.272,306.400 119.420 M138.726 122.100 C 140.925 125.310,142.855 129.999,143.393 133.441 L 143.650 135.082 141.725 135.580 C 140.666 135.853,138.810 136.454,137.600 136.914 C 135.507 137.711,134.621 138.152,131.748 139.829 L 130.495 140.560 127.093 138.296 C 124.035 136.261,121.087 134.734,117.300 133.222 C 116.585 132.937,116.000 132.580,116.000 132.430 C 116.000 130.581,127.548 123.478,134.200 121.236 C 137.406 120.155,137.392 120.152,138.726 122.100 M288.726 122.100 C 290.925 125.310,292.855 129.999,293.393 133.441 L 293.650 135.082 291.725 135.580 C 290.666 135.853,288.810 136.454,287.600 136.914 C 285.507 137.711,284.621 138.152,281.748 139.829 L 280.495 140.560 277.093 138.296 C 274.035 136.261,271.087 134.734,267.300 133.222 C 266.585 132.937,266.000 132.580,266.000 132.430 C 266.000 130.581,277.548 123.478,284.200 121.236 C 287.406 120.155,287.392 120.152,288.726 122.100 M37.600 131.200 L 37.600 137.200 43.800 137.200 L 50.000 137.200 50.000 131.200 L 50.000 125.200 43.800 125.200 L 37.600 125.200 37.600 131.200 M187.418 135.515 C 191.326 139.766,195.198 146.375,197.377 152.517 L 198.341 155.235 196.471 156.601 C 193.333 158.893,186.315 162.000,184.277 162.000 C 183.975 162.000,183.498 161.235,183.216 160.300 C 182.000 156.262,180.823 153.540,179.125 150.834 L 178.016 149.069 178.887 147.634 C 179.366 146.845,179.857 146.110,179.979 146.000 C 180.859 145.204,184.022 138.582,184.831 135.842 C 185.489 133.612,185.649 133.591,187.418 135.515 M337.418 135.515 C 341.326 139.766,345.198 146.375,347.377 152.517 L 348.341 155.235 346.471 156.601 C 343.333 158.893,336.315 162.000,334.277 162.000 C 333.975 162.000,333.498 161.235,333.216 160.300 C 332.000 156.262,330.823 153.540,329.125 150.834 L 328.016 149.069 328.887 147.634 C 329.366 146.845,329.857 146.110,329.979 146.000 C 330.859 145.204,334.022 138.582,334.831 135.842 C 335.489 133.612,335.649 133.591,337.418 135.515 M113.221 145.228 C 116.031 146.189,118.899 147.687,120.275 148.913 L 121.150 149.692 119.599 152.602 C 117.946 155.703,116.400 159.962,116.400 161.411 C 116.400 162.172,116.063 162.355,113.900 162.769 C 109.497 163.612,104.533 165.135,101.950 166.436 C 100.053 167.390,100.074 167.448,100.668 162.911 C 101.517 156.427,102.537 152.813,105.102 147.200 C 106.871 143.331,107.338 143.217,113.221 145.228 M263.221 145.228 C 266.031 146.189,268.899 147.687,270.275 148.913 L 271.150 149.692 269.599 152.602 C 267.946 155.703,266.400 159.962,266.400 161.411 C 266.400 162.172,266.063 162.355,263.900 162.769 C 259.497 163.612,254.533 165.135,251.950 166.436 C 250.053 167.390,250.074 167.448,250.668 162.911 C 251.517 156.427,252.537 152.813,255.102 147.200 C 256.871 143.331,257.338 143.217,263.221 145.228 M154.481 147.158 C 154.987 147.355,156.210 147.754,157.200 148.044 C 162.917 149.717,169.072 155.870,170.762 161.600 C 171.054 162.590,171.465 163.873,171.675 164.452 C 174.288 171.642,168.263 184.186,160.288 188.163 C 137.415 199.567,116.523 170.403,134.995 152.857 C 136.649 151.286,138.188 150.000,138.415 150.000 C 138.642 150.000,139.305 149.685,139.887 149.300 C 142.931 147.287,151.563 146.020,154.481 147.158 M304.481 147.158 C 304.987 147.355,306.210 147.754,307.200 148.044 C 312.917 149.717,319.072 155.870,320.762 161.600 C 321.054 162.590,321.465 163.873,321.675 164.452 C 324.288 171.642,318.263 184.186,310.288 188.163 C 287.415 199.567,266.523 170.403,284.995 152.857 C 286.649 151.286,288.188 150.000,288.415 150.000 C 288.642 150.000,289.305 149.685,289.887 149.300 C 292.931 147.287,301.563 146.020,304.481 147.158 M37.600 156.410 L 37.600 162.421 43.700 162.310 L 49.800 162.200 49.911 156.300 L 50.021 150.400 43.811 150.400 L 37.600 150.400 37.600 156.410 M200.003 170.300 C 200.007 171.410,199.176 177.260,198.796 178.800 C 198.606 179.570,198.226 181.100,197.951 182.200 C 197.391 184.438,196.031 187.975,194.551 191.038 L 193.567 193.075 191.684 192.748 C 187.604 192.040,184.014 190.787,181.002 189.022 C 178.843 187.757,178.854 187.863,180.569 184.714 C 182.055 181.985,183.600 177.618,183.600 176.148 C 183.600 175.138,184.640 174.400,186.062 174.400 C 187.869 174.400,193.038 172.685,196.600 170.904 C 199.466 169.471,199.999 169.376,200.003 170.300 M350.003 170.300 C 350.007 171.410,349.176 177.260,348.796 178.800 C 348.606 179.570,348.226 181.100,347.951 182.200 C 347.391 184.438,346.031 187.975,344.551 191.038 L 343.567 193.075 341.684 192.748 C 337.604 192.040,334.014 190.787,331.002 189.022 C 328.843 187.757,328.854 187.863,330.569 184.714 C 332.055 181.985,333.600 177.618,333.600 176.148 C 333.600 175.138,334.640 174.400,336.062 174.400 C 337.869 174.400,343.038 172.685,346.600 170.904 C 349.466 169.471,349.999 169.376,350.003 170.300 M117.193 178.300 C 117.710 180.005,118.913 182.915,119.866 184.767 C 121.973 188.860,122.003 188.152,119.575 191.668 C 117.527 194.634,115.067 199.398,114.578 201.346 C 114.001 203.646,113.042 203.024,109.428 198.005 C 106.648 194.143,103.680 188.382,102.433 184.424 L 101.496 181.448 102.648 180.510 C 105.170 178.459,112.850 175.331,115.627 175.224 C 116.068 175.207,116.532 176.119,117.193 178.300 M267.193 178.300 C 267.710 180.005,268.913 182.915,269.866 184.767 C 271.973 188.860,272.003 188.152,269.575 191.668 C 267.527 194.634,265.067 199.398,264.578 201.346 C 264.001 203.646,263.042 203.024,259.428 198.005 C 256.648 194.143,253.680 188.382,252.433 184.424 L 251.496 181.448 252.648 180.510 C 255.170 178.459,262.850 175.331,265.627 175.224 C 266.068 175.207,266.532 176.119,267.193 178.300 M37.600 187.600 L 37.600 193.600 43.800 193.600 L 50.000 193.600 50.000 187.600 L 50.000 181.600 43.800 181.600 L 37.600 181.600 37.600 187.600 M172.370 198.380 C 175.363 200.412,178.706 202.090,182.100 203.264 C 185.254 204.354,185.253 204.353,183.300 206.142 C 178.432 210.603,169.254 215.753,164.624 216.622 C 162.449 217.030,158.395 210.154,157.020 203.724 C 156.756 202.489,156.802 202.433,158.473 201.987 C 159.423 201.733,160.513 201.362,160.895 201.163 C 161.277 200.963,161.766 200.800,161.983 200.800 C 162.655 200.800,166.529 198.895,168.000 197.842 C 169.801 196.552,169.652 196.534,172.370 198.380 M322.370 198.380 C 325.363 200.412,328.706 202.090,332.100 203.264 C 335.254 204.354,335.253 204.353,333.300 206.142 C 328.432 210.603,319.254 215.753,314.624 216.622 C 312.449 217.030,308.395 210.154,307.020 203.724 C 306.756 202.489,306.802 202.433,308.473 201.987 C 309.423 201.733,310.513 201.362,310.895 201.163 C 311.277 200.963,311.766 200.800,311.983 200.800 C 312.655 200.800,316.529 198.895,318.000 197.842 C 319.801 196.552,319.652 196.534,322.370 198.380 M137.978 201.013 C 139.954 201.776,142.020 202.400,142.571 202.400 C 143.686 202.400,144.400 203.397,144.400 204.955 C 144.400 205.509,144.561 206.376,144.758 206.881 C 144.955 207.387,145.336 208.610,145.604 209.600 C 146.247 211.977,146.468 212.538,147.955 215.572 C 149.541 218.806,149.476 218.854,144.400 218.191 C 134.488 216.896,125.200 213.253,125.200 210.660 C 125.200 208.057,127.714 201.711,129.866 198.882 L 130.868 197.564 132.627 198.595 C 133.595 199.162,136.003 200.250,137.978 201.013 M287.978 201.013 C 289.954 201.776,292.020 202.400,292.571 202.400 C 293.686 202.400,294.400 203.397,294.400 204.955 C 294.400 205.509,294.561 206.376,294.758 206.881 C 294.955 207.387,295.336 208.610,295.604 209.600 C 296.247 211.977,296.468 212.538,297.955 215.572 C 299.541 218.806,299.476 218.854,294.400 218.191 C 284.488 216.896,275.200 213.253,275.200 210.660 C 275.200 208.057,277.714 201.711,279.866 198.882 L 280.868 197.564 282.627 198.595 C 283.595 199.162,286.003 200.250,287.978 201.013 M37.600 225.000 L 37.600 243.600 43.800 243.600 L 50.000 243.600 50.000 225.000 L 50.000 206.400 43.800 206.400 L 37.600 206.400 37.600 225.000 M87.877 225.056 C 87.725 225.209,87.600 228.093,87.600 231.467 L 87.600 237.600 93.810 237.600 L 100.020 237.600 99.910 231.300 L 99.800 225.000 93.977 224.890 C 90.774 224.829,88.029 224.904,87.877 225.056 M200.267 225.067 C 200.120 225.213,200.000 228.093,200.000 231.467 L 200.000 237.600 206.200 237.600 L 212.400 237.600 212.400 231.200 L 212.400 224.800 206.467 224.800 C 203.203 224.800,200.413 224.920,200.267 225.067 M237.877 225.056 C 237.725 225.209,237.600 228.093,237.600 231.467 L 237.600 237.600 243.810 237.600 L 250.020 237.600 249.910 231.300 L 249.800 225.000 243.977 224.890 C 240.774 224.829,238.029 224.904,237.877 225.056 M350.267 225.067 C 350.120 225.213,350.000 228.093,350.000 231.467 L 350.000 237.600 356.200 237.600 L 362.400 237.600 362.400 231.200 L 362.400 224.800 356.467 224.800 C 353.203 224.800,350.413 224.920,350.267 225.067 M37.600 262.400 L 37.600 268.400 43.800 268.400 L 50.000 268.400 50.000 262.400 L 50.000 256.400 43.800 256.400 L 37.600 256.400 37.600 262.400 M225.000 275.000 L 225.000 287.400 218.700 287.510 L 212.400 287.620 212.400 281.410 L 212.400 275.200 206.200 275.200 L 200.000 275.200 200.000 281.400 L 200.000 287.600 193.800 287.600 L 187.600 287.600 187.600 281.400 L 187.600 275.200 181.410 275.200 L 175.221 275.200 175.110 281.300 L 175.000 287.400 168.700 287.510 L 162.400 287.620 162.400 281.410 L 162.400 275.200 156.200 275.200 L 150.000 275.200 150.000 281.400 L 150.000 287.600 143.800 287.600 L 137.600 287.600 137.600 281.400 L 137.600 275.200 131.410 275.200 L 125.221 275.200 125.110 281.300 L 125.000 287.400 118.700 287.510 L 112.400 287.620 112.400 275.277 C 112.400 268.488,112.521 262.813,112.668 262.665 C 112.815 262.518,138.150 262.443,168.968 262.499 L 225.000 262.600 225.000 275.000 " stroke="none" fill="#040404" fill-rule="evenodd"></path><path id="path4" d="M112.581 262.904 C 112.475 263.182,112.436 268.807,112.494 275.404 L 112.600 287.400 118.690 287.510 L 124.780 287.621 124.890 281.310 L 125.000 275.000 131.200 275.000 L 137.400 275.000 137.510 281.310 L 137.620 287.621 143.710 287.510 L 149.800 287.400 150.000 281.200 L 150.200 275.000 156.290 274.890 L 162.380 274.779 162.490 281.090 L 162.600 287.400 168.690 287.510 L 174.780 287.621 174.890 281.310 L 175.000 275.000 181.200 275.000 L 187.400 275.000 187.510 281.310 L 187.620 287.621 193.710 287.510 L 199.800 287.400 200.000 281.200 L 200.200 275.000 206.290 274.890 L 212.380 274.779 212.490 281.090 L 212.600 287.400 218.700 287.510 L 224.800 287.621 224.800 275.010 L 224.800 262.400 168.787 262.400 C 124.087 262.400,112.736 262.502,112.581 262.904 " stroke="none" fill="#fcac14" fill-rule="evenodd"></path></g></svg>